<?xml version="1.0" standalone="no"?><!DOCTYPE svg PUBLIC "-//W3C//DTD SVG 1.1//EN" "http://www.w3.org/Graphics/SVG/1.1/DTD/svg11.dtd"><svg t="1718976098101" class="icon" viewBox="0 0 1024 1024" version="1.1" xmlns="http://www.w3.org/2000/svg" p-id="4243" xmlns:xlink="http://www.w3.org/1999/xlink" width="200" height="200"><path d="M0 0h1024v1024H0z" fill="#FFFFFF" p-id="4244"></path><path d="M696.64 374.624a32 32 0 0 0-45.28-45.248l45.248 45.248z m-369.28 278.72a32 32 0 1 0 45.28 45.248l-45.248-45.248z m324 45.248a32 32 0 0 0 45.248-45.248l-45.248 45.248z m-278.72-369.216a32 32 0 1 0-45.248 45.248l45.248-45.248z m278.72 0L327.392 653.344l45.248 45.248 323.968-323.968-45.248-45.248z m45.248 323.968L372.64 329.376l-45.248 45.248 323.968 323.968 45.248-45.248zM896 512c0 212.064-171.936 384-384 384v64c247.424 0 448-200.576 448-448h-64zM512 896C299.936 896 128 724.064 128 512H64c0 247.424 200.576 448 448 448v-64zM128 512C128 299.936 299.936 128 512 128V64C264.576 64 64 264.576 64 512h64zM512 128c212.064 0 384 171.936 384 384h64c0-247.424-200.576-448-448-448v64z" fill="#000000" p-id="4245"></path></svg>